<svg width="1000" height="250" viewBox="0 0 1623 400" fill="none" xmlns="http://www.w3.org/2000/svg">
<rect width="1623" height="469" fill="white"/>
<path fill-rule="evenodd" clip-rule="evenodd" d="M593.481 233.772L455.819 96.2549V196.967L319.134 297.801L455.819 297.896V371.289L593.481 233.772Z" fill="#4E529A"/>
<path fill-rule="evenodd" clip-rule="evenodd" d="M108.2 233.722L245.862 371.239L245.862 271.593L381.546 170.692L245.862 170.599L245.862 96.2051L108.2 233.722Z" fill="#8C8DFC"/>
<path d="M805.395 314.752H699.773V284.421L760.239 217.018H701.33V187.206H804.357V215.982L742.073 284.68H805.395V314.752Z" fill="black" fill-opacity="0.9"/>
<path d="M949.54 187.206L898.416 240.869L950.578 314.752H908.278L874.541 266.015L860.268 281.051V314.752H825.752V127.062H860.268V234.647L904.385 187.206H949.54Z" fill="black" fill-opacity="0.9"/>
<path d="M1099.66 174.762L1067.48 184.614C1066.27 178.046 1062.98 172.084 1057.62 166.726C1052.26 161.368 1044.38 158.69 1034 158.69C1025.53 158.69 1018.61 161.023 1013.24 165.689C1007.88 170.183 1005.2 175.627 1005.2 182.021C1005.2 193.255 1011.86 200.168 1025.18 202.76L1050.87 207.686C1067.13 210.797 1079.76 217.278 1088.76 227.129C1097.76 236.98 1102.26 248.559 1102.26 261.867C1102.26 277.076 1096.2 290.383 1084.09 301.79C1072.15 313.024 1056.06 318.64 1035.82 318.64C1024.23 318.64 1013.76 316.912 1004.42 313.456C995.076 309.999 987.55 305.419 981.841 299.716C976.132 293.84 971.633 287.704 968.346 281.31C965.232 274.742 963.329 268.002 962.637 261.089L995.855 252.275C996.72 262.126 1000.53 270.335 1007.27 276.903C1014.19 283.47 1023.8 286.754 1036.08 286.754C1045.42 286.754 1052.69 284.68 1057.88 280.532C1063.24 276.384 1065.92 270.94 1065.92 264.2C1065.92 258.842 1063.93 254.263 1059.95 250.46C1056.15 246.485 1050.7 243.807 1043.61 242.424L1017.91 237.239C1003.03 234.128 991.27 227.993 982.619 218.833C973.969 209.673 969.644 198.267 969.644 184.614C969.644 168.368 975.872 154.715 988.329 143.654C1000.96 132.593 1016.1 127.062 1033.74 127.062C1044.3 127.062 1053.73 128.531 1062.03 131.469C1070.33 134.407 1077 138.382 1082.01 143.394C1087.03 148.234 1090.92 153.246 1093.69 158.43C1096.46 163.615 1098.45 169.059 1099.66 174.762Z" fill="black" fill-opacity="0.9"/>
<path d="M1160.4 365.044H1123.81L1153.91 298.679L1099.67 187.206H1138.34L1172.34 261.867L1203.74 187.206H1240.59L1160.4 365.044Z" fill="black" fill-opacity="0.9"/>
<path d="M1288.23 241.387V314.752H1253.71V187.206H1287.19V203.02C1290.82 196.798 1296.01 192.045 1302.76 188.761C1309.51 185.478 1316.6 183.836 1324.04 183.836C1339.09 183.836 1350.51 188.589 1358.3 198.094C1366.26 207.427 1370.24 219.524 1370.24 234.388V314.752H1335.72V240.35C1335.72 232.746 1333.73 226.61 1329.75 221.944C1325.94 217.278 1320.06 214.945 1312.1 214.945C1304.84 214.945 1299.04 217.451 1294.72 222.463C1290.39 227.474 1288.23 233.783 1288.23 241.387Z" fill="black" fill-opacity="0.9"/>
<path d="M1454.83 215.204C1445.66 215.204 1437.96 218.401 1431.74 224.796C1425.51 231.19 1422.39 239.918 1422.39 250.979C1422.39 262.04 1425.51 270.854 1431.74 277.421C1438.14 283.816 1445.92 287.013 1455.09 287.013C1463.22 287.013 1469.71 284.939 1474.56 280.791C1479.4 276.471 1482.69 271.372 1484.42 265.496L1514.78 275.607C1511.67 287.359 1504.92 297.469 1494.54 305.938C1484.16 314.406 1471.01 318.64 1455.09 318.64C1436.06 318.64 1420.06 312.246 1407.08 299.457C1394.28 286.495 1387.88 270.335 1387.88 250.979C1387.88 231.449 1394.19 215.29 1406.82 202.501C1419.63 189.712 1435.37 183.317 1454.05 183.317C1470.32 183.317 1483.64 187.552 1494.02 196.02C1504.4 204.316 1511.06 214.426 1514 226.351L1483.12 236.721C1478.97 222.376 1469.54 215.204 1454.83 215.204Z" fill="black" fill-opacity="0.9"/>
</svg>
