<svg width="148" height="28" viewBox="0 0 148 28" fill="none" xmlns="http://www.w3.org/2000/svg">
<path d="M35.7328 26.6668L35.7328 1.20825L48.4791 13.9375L35.7328 26.6668Z" fill="#4E529A"/>
<path d="M35.7328 26.6668L35.7328 1.20825L48.4791 13.9375L35.7328 26.6668Z" stroke="#4E529A"/>
<path d="M35.7328 26.6668L35.7328 1.20825L48.4791 13.9375L35.7328 26.6668Z" stroke="url(#paint0_linear)"/>
<path d="M34.7312 11.1212L34.7312 19.9341L22.7928 19.9258L34.7312 11.1212Z" fill="#4E529A"/>
<path d="M34.7312 11.1212L34.7312 19.9341L22.7928 19.9258L34.7312 11.1212Z" stroke="#4E529A"/>
<path d="M34.7312 11.1212L34.7312 19.9341L22.7928 19.9258L34.7312 11.1212Z" stroke="url(#paint1_linear)"/>
<path d="M13.4547 1.20634L13.4547 26.6648L0.708435 13.9356L13.4547 1.20634Z" fill="#8C8DFC"/>
<path d="M13.4547 1.20634L13.4547 26.6648L0.708435 13.9356L13.4547 1.20634Z" stroke="#8C8DFC"/>
<path d="M13.4547 1.20634L13.4547 26.6648L0.708435 13.9356L13.4547 1.20634Z" stroke="url(#paint2_linear)"/>
<path d="M14.4588 16.828L14.4564 7.93898L26.4044 7.94721L14.4588 16.828Z" fill="#8C8DFC"/>
<path d="M14.4588 16.828L14.4564 7.93898L26.4044 7.94721L14.4588 16.828Z" stroke="#8C8DFC"/>
<path d="M14.4588 16.828L14.4564 7.93898L26.4044 7.94721L14.4588 16.828Z" stroke="url(#paint3_linear)"/>
<path d="M70.6713 22.1468H59.9648V19.0732L66.0941 12.2428H60.1227V9.22172H70.5661V12.1377L64.2527 19.0994H70.6713V22.1468Z" fill="white" fill-opacity="0.9"/>
<path d="M85.2827 9.22172L80.1005 14.6597L85.3879 22.1468H81.1001L77.6804 17.208L76.2335 18.7317V22.1468H72.7349V3.12695H76.2335V14.0292L80.7055 9.22172H85.2827Z" fill="white" fill-opacity="0.9"/>
<path d="M105.161 7.96073L101.899 8.95901C101.776 8.29349 101.443 7.68927 100.9 7.14635C100.356 6.60342 99.5579 6.33196 98.5057 6.33196C97.6464 6.33196 96.9449 6.56839 96.4012 7.04126C95.8576 7.49662 95.5858 8.0483 95.5858 8.69631C95.5858 9.8347 96.2609 10.5352 97.6113 10.798L100.216 11.2971C101.864 11.6123 103.144 12.2691 104.056 13.2674C104.968 14.2657 105.424 15.4391 105.424 16.7876C105.424 18.3288 104.81 19.6774 103.583 20.8333C102.373 21.9717 100.742 22.5409 98.6898 22.5409C97.5148 22.5409 96.4538 22.3657 95.5068 22.0155C94.5598 21.6652 93.797 21.2011 93.2182 20.6231C92.6395 20.0277 92.1835 19.4059 91.8503 18.7579C91.5347 18.0924 91.3418 17.4094 91.2716 16.7088L94.6387 15.8156C94.7264 16.8139 95.1122 17.6458 95.7962 18.3113C96.4977 18.9768 97.471 19.3096 98.7161 19.3096C99.6632 19.3096 100.4 19.0994 100.926 18.6791C101.469 18.2588 101.741 17.7071 101.741 17.0241C101.741 16.4811 101.54 16.017 101.136 15.6317C100.75 15.2289 100.198 14.9575 99.479 14.8173L96.8747 14.2919C95.3665 13.9767 94.174 13.3549 93.2971 12.4267C92.4203 11.4985 91.9819 10.3426 91.9819 8.95901C91.9819 7.31273 92.6132 5.92914 93.8759 4.80827C95.1561 3.68739 96.6906 3.12695 98.4794 3.12695C99.5492 3.12695 100.505 3.27582 101.347 3.57355C102.189 3.87128 102.864 4.2741 103.372 4.782C103.881 5.27238 104.275 5.78028 104.556 6.30569C104.837 6.8311 105.038 7.38278 105.161 7.96073Z" fill="white" fill-opacity="0.9"/>
<path d="M111.318 27.2433H107.609L110.66 20.518L105.162 9.22172H109.082L112.528 16.7876L115.711 9.22172H119.447L111.318 27.2433Z" fill="white" fill-opacity="0.9"/>
<path d="M124.275 14.7123V22.1468H120.777V9.22172H124.17V10.8242C124.539 10.1937 125.065 9.7121 125.749 9.37934C126.433 9.04658 127.152 8.8802 127.906 8.8802C129.431 8.8802 130.589 9.36183 131.378 10.3251C132.185 11.2708 132.588 12.4968 132.588 14.003V22.1468H129.089V14.6072C129.089 13.8366 128.888 13.2148 128.484 12.742C128.099 12.2691 127.502 12.0327 126.696 12.0327C125.959 12.0327 125.372 12.2866 124.933 12.7945C124.495 13.3024 124.275 13.9417 124.275 14.7123Z" fill="white" fill-opacity="0.9"/>
<path d="M141.163 12.0589C140.234 12.0589 139.454 12.3829 138.822 13.0309C138.191 13.679 137.875 14.5634 137.875 15.6843C137.875 16.8051 138.191 17.6983 138.822 18.3639C139.471 19.0119 140.26 19.3359 141.19 19.3359C142.014 19.3359 142.672 19.1257 143.163 18.7054C143.654 18.2675 143.987 17.7509 144.162 17.1554L147.24 18.18C146.924 19.3709 146.24 20.3955 145.188 21.2536C144.136 22.1118 142.803 22.5409 141.19 22.5409C139.261 22.5409 137.638 21.8929 136.323 20.5969C135.025 19.2833 134.377 17.6458 134.377 15.6843C134.377 13.7052 135.017 12.0677 136.297 10.7717C137.595 9.47567 139.19 8.82766 141.084 8.82766C142.733 8.82766 144.083 9.25675 145.136 10.1149C146.188 10.9556 146.863 11.9801 147.161 13.1886L144.031 14.2394C143.61 12.7858 142.654 12.0589 141.163 12.0589Z" fill="white" fill-opacity="0.9"/>
<defs>
<linearGradient id="paint0_linear" x1="42.2095" y1="6.96973" x2="28.274" y2="20.9239" gradientUnits="userSpaceOnUse">
<stop stop-color="#4E529A"/>
<stop offset="1" stop-color="#4E529A" stop-opacity="0"/>
</linearGradient>
<linearGradient id="paint1_linear" x1="24.7661" y1="23.9114" x2="36.882" y2="11.7793" gradientUnits="userSpaceOnUse">
<stop stop-color="#4E529A"/>
<stop offset="1" stop-color="#4E529A" stop-opacity="0"/>
</linearGradient>
<linearGradient id="paint2_linear" x1="6.97797" y1="20.9033" x2="20.9135" y2="6.94912" gradientUnits="userSpaceOnUse">
<stop stop-color="#8C8DFC"/>
<stop offset="1" stop-color="#8C8DFC" stop-opacity="0"/>
</linearGradient>
<linearGradient id="paint3_linear" x1="24.4214" y1="3.9616" x2="12.2666" y2="16.1327" gradientUnits="userSpaceOnUse">
<stop stop-color="#8C8DFC"/>
<stop offset="1" stop-color="#8C8DFC" stop-opacity="0"/>
</linearGradient>
</defs>
</svg>
