<svg version="1.2" xmlns="http://www.w3.org/2000/svg" viewBox="0 0 468 315" width="468" height="315">
	<title>rif_logo-svg</title>
	<style>
		tspan { white-space:pre } 
		.s0 { fill: #000000 } 
		.s1 { fill: #008cff } 
		.s2 { fill: #0cbfe8 } 
		.t3 { font-size: 35px;fill: #000000;font-weight: 400;font-family: "PTMono-Regular", "PT Mono" } 
	</style>
	<g id="Layer">
		<g id="Layer">
			<g id="Layer">
				<path id="Layer" class="s0" d="m239.7 258.8v-116.5l23.9-2.9 3.7 18.3c7.8-12.5 19.2-18.8 34-18.8 3.1 0 5.7 0.1 7.6 0.4l-0.4 23.8c-2.9-0.4-5.9-0.7-9-0.7-10.5 0-18.3 2.8-23.5 8.4-5.2 5.6-7.8 13.3-7.8 23.3v64.8h-28.5z"/>
				<path id="Layer" class="s1" d="m41.5 67.4c0-38 35.9-55.9 35.9-55.9v110.8c0 0-35.9-16.9-35.9-54.9z"/>
				<path id="Layer" class="s2" d="m77.4 11.5c0 0 35.9 17.9 35.9 55.9 0 38-35.9 55-35.9 55z"/>
				<path id="Layer" class="s1" d="m176.5 144.6c16.9-9.6 33.9 1.8 33.9 1.8l-49.3 28c0 0-1.5-20.2 15.4-29.8z"/>
				<path id="Layer" class="s2" d="m210.4 146.4c0 0 1.1 20.5-15.8 30.1-16.9 9.6-33.5-2-33.5-2z"/>
				<path id="Layer" fill-rule="evenodd" class="s0" d="m215.5 143.3l-0.1 3.1c0 1-1 24.5-18.5 34.6-5.4 3.1-10.9 4.2-16.1 4.2-8.5 0-16-2.9-19.8-4.7l-6.5 3.7c0.3 1.3 0.5 2.8 0.5 4.2 0 8.2-5.5 15.1-13 17.3v35.7c7.5 2.2 13 9.1 13 17.3 0 9.9-8.1 18-18 18-5.3 0-10-2.3-13.3-5.9l-28.9 16.7c0.3 1.4 0.5 2.8 0.5 4.3 0 9.9-8.1 18-18 18-9.9 0-18-8.1-18-18 0-1.5 0.2-2.9 0.5-4.3l-28.9-16.7c-3.3 3.6-8 5.9-13.3 5.9-9.9 0-18-8.1-18-18 0-8.2 5.5-15.1 13-17.3v-35.7c-7.5-2.2-13-9.1-13-17.3 0-9.9 8.1-18 18-18 4.8 0 9.2 1.9 12.4 5l29.8-17.2c-0.3-1.4-0.5-2.8-0.5-4.3 0-8.2 5.5-15.1 13-17.3v-10.6c-8.7-5.6-36.2-25.9-36.2-58.1 0-37.3 37-60.6 38.6-61.6l2.6-1.6 2.6 1.6c1.6 1 38.6 24.3 38.6 61.6 0 32.3-27.5 52.5-36.2 58.1v10.6c7.5 2.2 13 9.1 13 17.3 0 1.5-0.2 2.9-0.5 4.3l29.8 17.2c3.2-3.1 7.6-5 12.4-5 4.9 0 9.4 2 12.6 5.2l6.5-3.7c0.5-6.8 3.3-23.1 17.4-31.2 17.5-10.1 38.3 0.8 39.2 1.3zm-70.6 46.3c0.1-0.4 0.1-0.8 0.1-1.3 0-3.3-2-6.2-4.9-7.4-0.9-0.4-2-0.6-3.1-0.6-1 0-2 0.2-2.9 0.6-2.7 1.1-4.6 3.6-5 6.5-0.1 0.3-0.1 0.7-0.1 1 0 0.4 0.1 0.8 0.1 1.2 0.3 2.1 1.4 4 3 5.2q0.9 0.7 2.1 1.2c0.9 0.3 1.8 0.5 2.8 0.5 1.9 0 3.6-0.6 5-1.7 1.6-1.3 2.6-3 2.9-5.2zm-2.7 62.8c-1.4-1-3.1-1.7-5-1.7-0.5 0-1 0-1.4 0.1-1.4 0.2-2.6 0.8-3.6 1.6-1.2 0.9-2.1 2.2-2.6 3.6-0.3 0.8-0.5 1.6-0.5 2.5 0 0.1 0 0.1 0 0.2 0 2.9 1.5 5.4 3.8 6.8 1.2 0.8 2.7 1.2 4.2 1.2 4.4 0 8-3.6 8-8 0-2.5-1.2-4.8-2.9-6.3zm-10.2-10.9v-35.6c-2.8-0.8-5.3-2.3-7.4-4.3l-30 17.3c0.4 1.6 0.7 3.3 0.7 5 0 1.2-0.1 2.4-0.3 3.5l30.5 17.6c1.9-1.6 4.2-2.8 6.6-3.5zm-46.7 51.5c0.1-0.4 0.1-0.8 0.1-1.2 0-3.3-2.1-6.2-5-7.4q-1.4-0.6-3-0.6c-1 0-2.1 0.2-3 0.6-2.9 1.2-5 4-5 7.4 0 0.4 0 0.8 0.1 1.2 0.6 3.9 3.9 6.8 7.9 6.8 4 0 7.3-2.9 7.9-6.8zm-25.8-69.1c0-1.8 0.2-3.5 0.7-5.1l-30-17.3c-2.1 2-4.6 3.5-7.5 4.3v35.7c2.5 0.7 4.7 1.9 6.6 3.5l30.5-17.6c-0.3-1.2-0.4-2.4-0.3-3.5zm-33.6 34.6c0-0.9-0.2-1.7-0.5-2.5-0.5-1.4-1.4-2.7-2.6-3.6-1.1-0.8-2.3-1.4-3.6-1.6-0.5-0.1-0.9-0.1-1.4-0.1-1.9 0-3.6 0.6-5 1.7-1.8 1.5-3 3.8-3 6.3 0 4.4 3.6 8 8 8 1.5 0 3-0.4 4.2-1.2 2.3-1.4 3.8-3.9 3.8-6.8 0 0 0-0.1 0.1-0.2zm-13.3-63.5c1.4 1.1 3.1 1.7 5 1.7q1.6 0 3-0.6c0.7-0.2 1.4-0.6 2-1.1 1.6-1.3 2.7-3.1 3-5.2 0.1-0.4 0.1-0.8 0.1-1.2 0-0.4 0-0.8-0.1-1.2-0.4-2.9-2.4-5.3-5-6.3-0.9-0.4-1.9-0.6-2.9-0.6-4.4 0-8 3.6-8 8 0 2.5 1.2 4.8 2.9 6.5zm56.8-42.2c-0.1 0.4-0.1 0.8-0.1 1.2 0 2.6 1.2 4.8 3.1 6.3 0.6 0.4 1.3 0.8 2 1.1q1.5 0.6 3 0.6 1.6 0 3-0.6c0.7-0.2 1.4-0.6 2-1.1 1.9-1.5 3.1-3.8 3.1-6.3 0-0.4 0-0.8-0.1-1.2-0.3-2-1.4-3.8-3-5.1-1.4-1-3.1-1.7-5-1.7-1.9 0-3.6 0.6-5 1.7-1.6 1.3-2.7 3.1-3 5.1zm16.2 71c0-0.8-0.1-1.5-0.3-2.2-0.4-1.6-1.4-3-2.7-4.1-0.9-0.6-1.8-1.1-2.9-1.4q-1.1-0.3-2.1-0.3c-0.7 0-1.4 0.1-2 0.3q-1.7 0.4-3 1.5c-1.4 1-2.4 2.5-2.8 4.2q-0.3 1-0.3 2.1c0 0 0 0.1 0 0.2 0 2.5 1.2 4.7 3 6.1 0.3 0.3 0.8 0.6 1.2 0.8 1.1 0.6 2.4 0.9 3.7 0.9 1.4 0 2.7-0.4 3.8-1 0.4-0.3 0.8-0.5 1.2-0.8 1.7-1.4 2.9-3.6 3-6 0-0.1 0-0.2 0.2-0.3zm4.3-56.8c-2.1 2-4.6 3.5-7.5 4.3v35.2c2.7 0.8 5 2.1 7 3.9l30.3-17.5q-0.6-2.3-0.6-4.5c0-1.5 0.2-2.9 0.5-4.3zm-17.7-53v-41.9c0-2.8 2.3-5 5-5 2.8 0 5 2.2 5 5v41.8c9.9-7.6 26.3-23.7 26.3-45.8 0-26.5-23.2-45.6-31.2-51.3-7.9 5.7-31.2 24.9-31.2 51.3 0 22.2 16.4 38.2 26.1 45.9zm-37 70.2c0.3 1.4 0.5 2.8 0.5 4.3 0 1.5-0.2 2.9-0.5 4.3l30.3 17.5c2-1.8 4.3-3.1 6.9-3.8v-35.2c-2.9-0.8-5.4-2.3-7.5-4.3zm29.7 94.8c2.1-2.1 4.6-3.6 7.5-4.4v-33.4c-3.1-0.9-5.8-2.6-8-4.9l-29.6 17c0.6 1.7 0.9 3.6 0.9 5.5 0 1-0.1 2.1-0.3 3.1zm54.4-17.2c-0.2-1-0.3-2-0.3-3.1 0-1.9 0.3-3.8 0.9-5.5l-29.5-17c-2.1 2.3-4.9 4-8 4.9v33.4c2.9 0.9 5.4 2.4 7.5 4.4zm85.7-112.4c-5.4-2.1-17.1-5.6-26.6-0.1-6.6 3.8-9.7 10.6-11.2 16.2l9.9-5.7c2.4-1.4 5.4-0.6 6.8 1.8 1.4 2.4 0.6 5.4-1.8 6.8l-9.9 5.7c5.6 1.5 13.1 2.2 19.7-1.6 9.6-5.5 12.4-17.4 13.1-23.1z"/>
				<path id="Layer" class="s0" d="m329.5 112.6c0-9.7 5.4-14.6 16.2-14.6 10.8 0 16.2 4.9 16.2 14.6 0 4.6-1.4 8.2-4.1 10.8-2.7 2.6-6.8 3.9-12.2 3.9-10.7 0-16.1-4.9-16.1-14.7zm31.1 146.2h-29.8v-117.9h29.8z"/>
				<path id="Layer" class="s0" d="m452.4 163.3h-25.8v95.5h-29.8v-95.5h-16.4v-14.4l16.4-8v-8c0-12.5 3.1-21.6 9.2-27.3 6.1-5.7 16-8.6 29.5-8.6 10.3 0 19.5 1.5 27.5 4.6l-7.6 21.9c-6-1.9-11.5-2.8-16.6-2.8-4.2 0-7.3 1.3-9.2 3.8-1.9 2.5-2.8 5.7-2.8 9.6v6.8h25.8v22.4z"/>
			</g>
		</g>
		<text id="Aggregation" style="transform: matrix(1,0,0,1,229.051,301.992)" >
			<tspan x="0" y="0" class="t3">A</tspan><tspan  y="0" class="t3">g</tspan><tspan  y="0" class="t3">g</tspan><tspan  y="0" class="t3">r</tspan><tspan  y="0" class="t3">e</tspan><tspan  y="0" class="t3">g</tspan><tspan  y="0" class="t3">a</tspan><tspan  y="0" class="t3">t</tspan><tspan  y="0" class="t3">i</tspan><tspan  y="0" class="t3">o</tspan><tspan  y="0" class="t3">n
</tspan>
		</text>
	</g>
</svg>